<?xml version="1.0" ?><svg viewBox="0 0 20 20" xmlns="http://www.w3.org/2000/svg"><defs><style>.cls-1{fill:none;}.cls-2{fill:#1b5cf3;}.cls-3{fill:#f92115;}.cls-4{fill:#190d15;}</style></defs><g data-name="Layer 2" id="Layer_2"><g data-name="Layer 1" id="Layer_1-2"><rect class="cls-1" height="20" width="20"/><path class="cls-2" d="M14.26,17.48A4.74,4.74,0,0,0,19,12.74h0A4.74,4.74,0,0,0,14.43,8,7,7,0,0,0,8,3.58H8a6.84,6.84,0,0,0-3.31.84,6.5,6.5,0,0,0-1.11.74,7,7,0,0,0-.94,1,6.91,6.91,0,0,0-1.45,3A7.15,7.15,0,0,0,1,10.53a7,7,0,0,0,7,7"/><path class="cls-3" d="M19,7a4.47,4.47,0,0,0-4.47-4.47h0a4.36,4.36,0,0,0-1.74.35,4.47,4.47,0,0,0-2.38,2.38A4.36,4.36,0,0,0,10.06,7h0a3.54,3.54,0,0,0,0,.46,4.2,4.2,0,0,0,.18.87,4.51,4.51,0,0,0,.56,1.17c.08.12.17.23.26.34a4.44,4.44,0,0,0,3.45,1.63h0A4.47,4.47,0,0,0,19,7Z"/><path class="cls-4" d="M18,9.82A4.72,4.72,0,0,0,14.43,8,7,7,0,0,0,11,4.28a4.53,4.53,0,0,0-.58,1A4.36,4.36,0,0,0,10.06,7a3.54,3.54,0,0,0,0,.46,4.2,4.2,0,0,0,.18.87,4.51,4.51,0,0,0,.56,1.17c.08.12.17.23.26.34a4.45,4.45,0,0,0,6.89,0Z"/></g></g></svg>